
[IMG]http://img844.imageshack.us/img844/6107/dawnofthedeadcopy.png[/IMG]


[IMG]http://img837.imageshack.us/img837/2236/11795028.png[/IMG]








[IMG]http://myph.us/pics/64623_8we5inyn.png[/IMG]

General
Complete name                    : Dawn Of The Dead[2004]DvDrip{Dual audio}[Eng Hindi]Current_HD
Format                           : AVI
Format/Info                      : Audio Video Interleave
Format profile                   : OpenDML
File size                        : 1.06 GiB
Duration                         : 1h 44mn
Overall bit rate                 : 1 451 Kbps
Writing application              : AVI-Mux GUI 1.17.8.3, Feb 16 201019:42:50

Video
ID                               : 0
Format                           : MPEG-4 Visual
Format profile                   : Simple@L3
Format settings, BVOP            : No
Format settings, QPel            : No
Format settings, GMC             : No warppoints
Format settings, Matrix          : Default (H.263)
Codec ID                         : XVID
Codec ID/Hint                    : XviD
Duration                         : 1h 44mn
Bit rate                         : 1 192 Kbps
Width                            : 640 pixels
Height                           : 360 pixels
Display aspect ratio             : 16:9
Frame rate                       : 25.000 fps
Color space                      : YUV
Chroma subsampling               : 4:2:0
Bit depth                        : 8 bits
Scan type                        : Progressive
Bits/(Pixel*Frame)               : 0.207
Stream size                      : 892 MiB (82%)
Writing library                  : Magic0432

Audio #1
ID                               : 1
Format                           : MPEG Audio
Format version                   : Version 1
Format profile                   : Layer 3
Mode                             : Joint stereo
Mode extension                   : MS Stereo
Codec ID                         : 55
Codec ID/Hint                    : MP3
Duration                         : 1h 44mn
Bit rate mode                    : Constant
Bit rate                         : 128 Kbps
Channel(s)                       : 2 channels
Sampling rate                    : 44.1 KHz
Stream size                      : 95.8 MiB (9%)
Alignment                        : Aligned on interleaves
Interleave, duration             : 584 ms (14.60 video frames)
Interleave, preload duration     : 208 ms

Audio #2
ID                               : 2
Format                           : MPEG Audio
Format version                   : Version 1
Format profile                   : Layer 3
Mode                             : Joint stereo
Mode extension                   : MS Stereo
Codec ID                         : 55
Codec ID/Hint                    : MP3
Duration                         : 1h 44mn
Bit rate mode                    : Constant
Bit rate                         : 128 Kbps
Channel(s)                       : 2 channels
Sampling rate                    : 48.0 KHz
Stream size                      : 95.6 MiB (9%)
Alignment                        : Aligned on interleaves
Interleave, duration             : 585 ms (14.62 video frames)
Interleave, preload duration     : 216 ms
Title                            : CurrentHD



[IMG]http://img99.imageshack.us/img99/2379/67869504.jpg[/IMG]
[IMG]http://img30.imageshack.us/img30/5717/51105098.jpg[/IMG]
[IMG]http://img256.imageshack.us/img256/2791/55293381.jpg[/IMG]
[IMG]http://img837.imageshack.us/img837/3940/52235974.jpg[/IMG]
[IMG]http://img706.imageshack.us/img706/6028/95139686.jpg[/IMG]
[IMG]http://img706.imageshack.us/img706/4003/89689334.jpg[/IMG]

